<svg width="50" height="40" viewBox="0 0 50 40" fill="none" xmlns="http://www.w3.org/2000/svg">
<mask id="mask0_14_268" style="mask-type:luminance" maskUnits="userSpaceOnUse" x="5" y="0" width="40" height="40">
<path d="M5.60559 0H44.384V39.7036H5.60559V0Z" fill="white"/>
</mask>
<g mask="url(#mask0_14_268)">
<path d="M44.3889 19.7771C44.3889 8.69054 35.7086 -0.296387 25 -0.296387C14.2913 -0.296387 5.61102 8.69054 5.61102 19.7771C5.61102 29.1915 11.8711 37.0897 20.3162 39.2596V25.911H16.3179V19.7771H20.3162V17.1339C20.3162 10.3013 23.3026 7.13442 29.7814 7.13442C31.0103 7.13442 33.1296 7.38437 33.9967 7.63381V13.1942C33.5387 13.1447 32.7442 13.1194 31.7568 13.1194C28.5775 13.1194 27.3487 14.3663 27.3487 17.608V19.7771H33.682L32.594 25.911H27.3487V39.7036C36.9496 38.5034 44.3889 30.0401 44.3889 19.7771Z" fill="#1E3D30"/>
</g>
</svg>
