<svg width="40" height="40" viewBox="0 0 40 40" fill="none" xmlns="http://www.w3.org/2000/svg">
<g clip-path="url(#clip0_134_9)">
<path fill-rule="evenodd" clip-rule="evenodd" d="M40 20.4444C40 18.7999 39.8639 17.5999 39.5692 16.3555H20.4082V23.7777H31.6553C31.4286 25.6222 30.2041 28.3999 27.4829 30.2665L27.4448 30.5151L33.5031 35.1145L33.9229 35.1556C37.7777 31.6667 40 26.5333 40 20.4444Z" fill="#4285F4"/>
<path fill-rule="evenodd" clip-rule="evenodd" d="M20.4082 40C25.9182 40 30.544 38.2222 33.9228 35.1556L27.4829 30.2666C25.7595 31.4444 23.4466 32.2666 20.4082 32.2666C15.0114 32.2666 10.4309 28.7778 8.79806 23.9556L8.55879 23.9755L2.25917 28.7534L2.17676 28.9778C5.53271 35.511 12.4262 40 20.4082 40Z" fill="#34A853"/>
<path fill-rule="evenodd" clip-rule="evenodd" d="M8.79795 23.9556C8.36718 22.7112 8.11775 21.3778 8.11775 20.0001C8.11775 18.6222 8.36705 17.2889 8.7753 16.0445L8.76391 15.7794L2.38543 10.9248L2.17677 11.0221C0.793591 13.7333 0 16.7777 0 19.9999C0 23.2222 0.793714 26.2665 2.17677 28.9776L8.79807 23.9555" fill="#FBBC04"/>
<path fill-rule="evenodd" clip-rule="evenodd" d="M20.4082 7.73329C24.2403 7.73329 26.8252 9.35557 28.2993 10.7112L34.0589 5.20009C30.5216 1.97784 25.9182 0.00012207 20.4082 0.00012207C12.4262 0.00012207 5.53284 4.48897 2.17676 11.0223L8.7754 16.0446C10.4309 11.2224 15.0114 7.73341 20.4082 7.73341" fill="#EA4335"/>
</g>
<defs>
<clipPath id="clip0_134_9">
<rect width="40" height="40" fill="white"/>
</clipPath>
</defs>
</svg>
