<svg width="36" height="38" viewBox="0 0 36 38" fill="none" xmlns="http://www.w3.org/2000/svg">
<g clip-path="url(#clip0_14_276)">
<path d="M11.9997 19.0119C11.9939 15.5146 14.6755 12.6736 17.988 12.6675C21.3012 12.6607 23.9932 15.49 23.9997 18.9879C24.0061 22.4858 21.3245 25.3262 18.0107 25.333C14.6982 25.3397 12.0061 22.5098 11.9997 19.0119ZM8.75775 19.0187C8.76766 24.4071 12.9136 28.7656 18.0172 28.7551C23.1213 28.7447 27.2527 24.3696 27.2428 18.9811C27.2329 13.5946 23.0864 9.23356 17.9816 9.2441C12.878 9.25456 8.74784 13.6315 8.75775 19.0187ZM25.4291 8.84391C25.4314 10.1022 26.4006 11.1211 27.5928 11.1186C28.7853 11.1161 29.7506 10.0936 29.7488 8.8353C29.7465 7.57699 28.7773 6.55753 27.5846 6.56005C26.392 6.5625 25.4268 7.5856 25.4291 8.84391ZM10.7552 34.4791C9.00033 34.3985 8.04738 34.0906 7.41232 33.8327C6.57131 33.4892 5.97119 33.0774 5.33958 32.4156C4.70916 31.7513 4.3178 31.1197 3.98944 30.2338C3.74278 29.5634 3.44592 28.5588 3.36365 26.7064C3.27443 24.7038 3.25404 24.103 3.24532 19.0298C3.23597 13.9578 3.25348 13.3569 3.3363 11.3525C3.41147 9.50141 3.70488 8.49419 3.94865 7.82444C4.27406 6.93552 4.6631 6.30325 5.2912 5.63662C5.92043 4.96991 6.51879 4.55807 7.3586 4.21147C7.99317 3.94978 8.94492 3.63887 10.6992 3.55092C12.5975 3.45607 13.1661 3.43581 17.9711 3.42594C22.7772 3.41607 23.3464 3.43396 25.2454 3.52198C26.999 3.60258 27.9531 3.90918 28.5871 4.16835C29.4286 4.51183 30.0288 4.9213 30.6598 5.58548C31.2908 6.24974 31.6822 6.88008 32.0105 7.76848C32.2583 8.43637 32.5529 9.44226 32.6357 11.2934C32.7261 13.2972 32.7465 13.8981 32.7553 18.97C32.7645 24.0432 32.747 24.6441 32.6637 26.6474C32.5873 28.4996 32.2963 29.5063 32.0514 30.1772C31.7259 31.0643 31.3369 31.6978 30.7082 32.3645C30.0795 33.0287 29.4812 33.443 28.6408 33.7896C28.0073 34.0506 27.0545 34.3621 25.3014 34.4501C23.4031 34.5443 22.8344 34.5659 18.0277 34.5751C13.2227 34.585 12.6541 34.5659 10.7552 34.4791ZM10.5452 0.131815C8.62999 0.227261 7.3219 0.551003 6.17876 1.02385C4.99547 1.5108 3.99239 2.16333 2.99458 3.22095C1.99551 4.27916 1.38197 5.33982 0.924163 6.59011C0.480983 7.7998 0.180608 9.18123 0.096022 11.2041C0.0120689 13.2308 -0.00719671 13.8771 0.00215485 19.0365C0.0115064 24.1953 0.033022 24.8429 0.124569 26.8702C0.216116 28.8912 0.521764 30.2714 0.969655 31.4785C1.43154 32.7276 2.04916 33.7859 3.05168 34.8398C4.05363 35.8937 5.0591 36.5408 6.24415 37.0247C7.38898 37.4918 8.69819 37.8101 10.6141 37.8988C12.534 37.988 13.1469 38.0077 18.0335 37.9979C22.9225 37.988 23.5355 37.9653 25.4554 37.8692C27.3706 37.7726 28.6775 37.4489 29.8218 36.9772C31.005 36.4885 32.0081 35.8377 33.0061 34.7795C34.0039 33.7218 34.6174 32.6606 35.0752 31.4097C35.5185 30.2012 35.82 28.8191 35.9033 26.7982C35.9873 24.7703 36.0072 24.1227 35.9978 18.9639C35.9884 13.8045 35.9664 13.1581 35.8754 11.1321C35.7844 9.10924 35.4776 7.72966 35.0303 6.52183C34.5679 5.2728 33.9509 4.21511 32.9489 3.16061C31.947 2.1073 30.9415 1.4584 29.7564 0.976425C28.611 0.50855 27.3023 0.189706 25.3865 0.102276C23.4666 0.0123975 22.8536 -0.0072705 17.9652 0.00252637C13.078 0.0123975 12.4651 0.0345147 10.5452 0.131815Z" fill="#1E3D30"/>
</g>
<defs>
<clipPath id="clip0_14_276">
<rect width="36" height="38" fill="white"/>
</clipPath>
</defs>
</svg>
