<svg width="800" height="600" xmlns="http://www.w3.org/2000/svg">

 <g>
  <title>Layer 1</title>
  <g stroke="null">
   <g stroke="null">
    <path fill="#fff" stroke="#ffffff" d="m179.75393,89.82393c60.13028,-58.17238 138.9407,-87.26342 217.7461,-87.26342s157.62083,29.09104 217.75111,87.26342c60.12527,58.17723 90.1879,134.42786 90.1879,210.67364c0,76.25548 -30.06263,152.50125 -90.1879,210.67849c-60.13028,58.17238 -138.94571,87.26342 -217.75111,87.26342s-157.62083,-29.09104 -217.7461,-87.26342c-60.13028,-58.17238 -90.19292,-134.42301 -90.19292,-210.67849c0,-76.24578 30.06263,-152.49641 90.19292,-210.67364l0,0zm198.78529,63.94792c0,-8.92274 7.47807,-16.15792 16.70536,-16.15792s16.70536,7.23518 16.70536,16.15792l0,132.78879l137.2466,0c9.22228,0 16.70035,7.23518 16.70035,16.15792c0,8.92759 -7.47807,16.16277 -16.70035,16.16277l-137.25162,0l0,132.78879c0,8.92274 -7.47807,16.15792 -16.70536,16.15792s-16.70536,-7.23518 -16.70536,-16.15792l0,-132.79364l-137.24159,0c-9.22228,0 -16.70536,-7.23518 -16.70536,-16.16277c0,-8.92274 7.47807,-16.15792 16.70536,-16.15792l137.2466,0l0,-132.78394l0,0zm18.96081,-118.89065c-70.25976,0 -140.5145,25.93414 -194.12403,77.80241c-53.60451,51.86342 -80.40928,119.84112 -80.40928,187.81397c0,67.9777 26.80476,135.95539 80.40928,187.81882c53.60953,51.86827 123.86427,77.80241 194.12403,77.80241s140.5145,-25.93414 194.12403,-77.80241c53.60451,-51.86342 80.41429,-119.84597 80.41429,-187.81882c0,-67.97285 -26.80978,-135.95054 -80.41429,-187.81397c-53.60451,-51.86827 -123.86427,-77.80241 -194.12403,-77.80241l0,0z"/>
   </g>
  </g>
 </g>
</svg>