<svg width="53" height="57" viewBox="0 0 53 57" fill="none" xmlns="http://www.w3.org/2000/svg">
<mask id="mask0_7_165" style="mask-type:luminance" maskUnits="userSpaceOnUse" x="0" y="9" width="53" height="39">
<path d="M53 47.4139L3.8147e-06 47.4139L3.8147e-06 9.56594L53 9.56594L53 47.4139Z" fill="white"/>
</mask>
<g mask="url(#mask0_7_165)">
<path d="M30.3166 47.408V36.936C30.3166 31.4931 31.0702 27.0026 32.5729 23.4632C34.079 19.9233 36.6837 16.9385 40.3899 14.5089C44.096 12.0763 48.2891 10.4274 52.9719 9.56174V18.047C49.5848 19.6258 47.6658 21.7805 47.2142 24.5124H52.9719V47.408H30.3166ZM0.0259628 47.408V36.936C0.0259628 31.4931 0.779556 27.0026 2.28233 23.4632C3.78841 19.9233 6.39314 16.9385 10.0993 14.5089C13.8054 12.0763 17.9985 10.4274 22.6813 9.56174V18.047C19.3754 19.6258 17.4977 21.7805 17.0484 24.5124H22.6813L22.6813 47.408H0.0259628Z" fill="#73997A"/>
</g>
</svg>
