<svg width="40" height="40" viewBox="0 0 40 40" fill="none" xmlns="http://www.w3.org/2000/svg">
<g clip-path="url(#clip0_14_278)">
<path d="M34.0247 8.01739C31.5541 6.6126 29.7715 4.36416 29.2153 1.74473C29.0951 1.17894 29.0284 0.596065 29.0284 0H21.1432L21.1298 27.5595C20.9981 30.6461 18.0852 33.1227 14.5146 33.1227C13.4048 33.1227 12.36 32.8814 11.4398 32.4584C9.32962 31.4905 7.88519 29.5619 7.88519 27.3429C7.88519 24.1554 10.8595 21.5616 14.5137 21.5616C15.1964 21.5616 15.8505 21.6601 16.469 21.8286V14.8085C15.8282 14.7317 15.1777 14.6851 14.5137 14.6851C6.51107 14.6851 0 20.3624 0 27.3429C0 31.6248 2.45278 35.4146 6.19691 37.7058C8.55357 39.1501 11.422 40 14.5146 40C22.5182 40 29.0284 34.3219 29.0284 27.3429V13.3672C32.121 15.3029 35.9106 16.4438 40 16.4438V9.56653C37.7973 9.56653 35.7459 8.99608 34.0247 8.01739Z" fill="#1E3D30"/>
</g>
<defs>
<clipPath id="clip0_14_278">
<rect width="40" height="40" fill="white"/>
</clipPath>
</defs>
</svg>
