<svg width="35" height="33" viewBox="0 0 35 33" fill="none" xmlns="http://www.w3.org/2000/svg">
<path d="M18.34 1.27872L22.8126 11.3134L34.1634 12.2867C34.3426 12.3008 34.5135 12.3656 34.6545 12.4728C34.7955 12.58 34.9003 12.7249 34.9557 12.8892C35.0111 13.0535 35.0146 13.2299 34.9658 13.3962C34.917 13.5624 34.8181 13.711 34.6815 13.8234L26.0894 21.0144L28.6232 31.6779C28.6497 31.79 28.6528 31.9059 28.6325 32.0191C28.6121 32.1324 28.5687 32.2406 28.5047 32.3377C28.4407 32.4347 28.3573 32.5187 28.2594 32.5847C28.1615 32.6507 28.051 32.6975 27.9342 32.7224C27.6926 32.7713 27.4407 32.7261 27.2339 32.5966L17.4831 27.0079L7.70661 32.624C7.60448 32.6835 7.4911 32.7229 7.37301 32.7402C7.25491 32.7574 7.13444 32.752 7.01853 32.7243C6.90262 32.6966 6.79356 32.6471 6.69764 32.5787C6.60172 32.5104 6.52084 32.4245 6.45965 32.3259C6.39836 32.2295 6.3575 32.1223 6.33943 32.0106C6.32135 31.899 6.32641 31.785 6.35431 31.6752L8.89095 21.0117L0.310225 13.8234C0.129863 13.6697 0.0193326 13.4543 0.00230474 13.2233C-0.0147232 12.9923 0.063105 12.7641 0.219122 12.5875C0.391071 12.4183 0.624974 12.3202 0.871075 12.3141L12.1792 11.3407L16.6517 1.27872C16.7239 1.12146 16.8421 0.98774 16.992 0.893862C17.1419 0.799984 17.3169 0.75 17.4959 0.75C17.6748 0.75 17.8499 0.799984 17.9998 0.893862C18.1496 0.98774 18.2678 1.12146 18.34 1.27872Z" fill="#FFD401"/>
</svg>
