<svg width="40" height="40" viewBox="0 0 40 40" fill="none" xmlns="http://www.w3.org/2000/svg">
<g clip-path="url(#clip0_14_280)">
<path fill-rule="evenodd" clip-rule="evenodd" d="M39.5918 12.0023C39.5918 12.0023 39.2013 9.24513 37.9995 8.0345C36.4767 6.44219 34.7714 6.43188 33.9918 6.33963C28.3985 5.93213 19.9978 5.93213 19.9978 5.93213H19.9831C19.9831 5.93213 11.5861 5.93213 5.98977 6.33963C5.20727 6.43482 3.50427 6.4415 1.98208 8.0345C0.779579 9.24513 0.397204 12.0023 0.397204 12.0023C0.397204 12.0023 -0.000671387 15.2378 -0.000671387 18.48V21.5118C-0.000671387 24.7473 0.397204 27.9895 0.397204 27.9895C0.397204 27.9895 0.787704 30.7466 1.98208 31.9595C3.50427 33.5518 5.50477 33.5001 6.39802 33.6699C9.60033 33.9756 20.0008 34.0678 20.0008 34.0678C20.0008 34.0678 28.4088 34.053 34.0021 33.6529C34.7846 33.5606 36.4869 33.5511 38.0098 31.958C39.2123 30.7474 39.6021 27.9873 39.6021 27.9873C39.6021 27.9873 40.0001 24.7518 40.0001 21.5096V18.4778C39.992 15.2423 39.594 12.0001 39.594 12.0001L39.5918 12.0023ZM15.8543 25.1903V13.9483L26.6601 19.5881L15.8543 25.1903Z" fill="#1E3D30"/>
</g>
<defs>
<clipPath id="clip0_14_280">
<rect width="40" height="40" fill="white"/>
</clipPath>
</defs>
</svg>
